<?xml version="1.0" standalone="no"?><!DOCTYPE svg PUBLIC "-//W3C//DTD SVG 1.1//EN" "http://www.w3.org/Graphics/SVG/1.1/DTD/svg11.dtd"><svg t="1642609340996" class="icon" viewBox="0 0 1024 1024" version="1.1" xmlns="http://www.w3.org/2000/svg" p-id="2190" xmlns:xlink="http://www.w3.org/1999/xlink" width="128" height="128"><defs><style type="text/css"></style></defs><path d="M826.43985066 410.02554785L197.54820266 410.02554785c-54.319104 0-98.34854399 43.93864534-98.34854399 98.15381335l0 416.36403199c0 54.21636267 44.02943999 98.15381333 98.34854399 98.15381333l628.89284267 0c54.32029868 0 98.36168533-43.93745067 98.36168534-98.15381333L924.80273067 508.1793612C924.80153599 453.96419319 880.76014933 410.02554785 826.43985066 410.02554785zM553.41431467 713.54495051l0 109.28691201c0 22.86592-18.53047466 41.42267734-41.42028801 41.42267735-22.87667201 0-41.42028801-18.55675732-41.42028799-41.42267735l0-109.28691198c-24.73318399-14.32644267-41.42148267-41.03082668-41.42148267-71.68119468 0-45.75573333 37.08603734-82.84296533 82.84177066-82.84296534s82.854912 37.087232 82.854912 82.84296534C594.84893868 672.51412386 578.17378132 699.21850787 553.41431467 713.54495051zM511.99402666 16.47487052c-160.14148266 0-289.97188267 128.00017068-289.97188267 296.174592l2e-8 128.62378666 579.95810133 27.61352533L801.98024534 312.64946252C801.98024534 144.47504118 672.14984533 16.47487052 511.99402666 16.47487052zM304.91528532 434.00609186L304.91528532 309.76912118c0-114.34871467 92.71569067-207.07874133 207.07754668-207.07874133 114.37499733 0 207.07874133 92.73002667 207.07874133 207.07874133l0 127.14359467L304.91528532 434.00609186z" fill="#2c2c2c" p-id="2191"></path></svg>