<?xml version="1.0" standalone="no"?><!DOCTYPE svg PUBLIC "-//W3C//DTD SVG 1.1//EN" "http://www.w3.org/Graphics/SVG/1.1/DTD/svg11.dtd"><svg t="1640329030519" class="icon" viewBox="0 0 1024 1024" version="1.1" xmlns="http://www.w3.org/2000/svg" p-id="1495" width="128" height="128" xmlns:xlink="http://www.w3.org/1999/xlink"><defs><style type="text/css"></style></defs><path d="M913.408 458.752c-22.528-22.528-51.2-32.768-81.92-30.72-28.672 2.048-65.536 8.192-108.544 16.384 0 0 0-2.048-2.048-2.048L661.504 389.12c36.864-34.816 59.392-86.016 59.392-141.312 0-108.544-90.112-196.608-198.656-196.608s-198.656 88.064-198.656 196.608c0 55.296 22.528 104.448 59.392 141.312l-59.392 53.248c-2.048 2.048-2.048 4.096-4.096 4.096-51.2-10.24-94.208-16.384-126.976-18.432-30.72-2.048-61.44 8.192-81.92 30.72-22.528 22.528-32.768 51.2-28.672 81.92l32.768 335.872c0 6.144 4.096 10.24 8.192 14.336s10.24 4.096 16.384 4.096c110.592-18.432 362.496 75.776 364.544 75.776 2.048 0 4.096 2.048 8.192 2.048h4.096c2.048 0 4.096 0 8.192-2.048 2.048 0 251.904-96.256 360.448-75.776 6.144 0 12.288 0 16.384-4.096 4.096-4.096 8.192-8.192 8.192-14.336L942.08 540.672c2.048-30.72-8.192-61.44-28.672-81.92zM364.544 249.856c0-86.016 71.68-155.648 157.696-155.648s157.696 69.632 157.696 155.648-71.68 155.648-157.696 155.648-157.696-71.68-157.696-155.648z m51.2 165.888c30.72 18.432 67.584 30.72 106.496 30.72s75.776-12.288 106.496-30.72l43.008 38.912c-47.104 10.24-100.352 26.624-159.744 47.104-53.248-18.432-100.352-32.768-145.408-43.008l49.152-43.008zM491.52 921.6c-61.44-22.528-215.04-71.68-319.488-71.68h-18.432L122.88 536.576c-2.048-18.432 4.096-36.864 18.432-49.152 12.288-12.288 30.72-20.48 49.152-18.432 65.536 6.144 172.032 22.528 301.056 67.584V921.6z m378.88-69.632c-102.4-6.144-268.288 47.104-333.824 71.68V536.576c126.976-45.056 231.424-61.44 296.96-67.584 18.432-2.048 36.864 4.096 49.152 18.432 12.288 12.288 18.432 30.72 18.432 49.152l-30.72 315.392z" fill="#174B89" p-id="1496"></path></svg>