<?xml version="1.0" standalone="no"?><!DOCTYPE svg PUBLIC "-//W3C//DTD SVG 1.1//EN" "http://www.w3.org/Graphics/SVG/1.1/DTD/svg11.dtd"><svg t="1642604517693" class="icon" viewBox="0 0 1024 1024" version="1.1" xmlns="http://www.w3.org/2000/svg" p-id="1965" width="128" height="128" xmlns:xlink="http://www.w3.org/1999/xlink"><defs><style type="text/css"></style></defs><path d="M525.53955555 511.97724445m-477.29777777 0a477.29777778 477.29777778 0 1 0 954.59555555 0 477.29777778 477.29777778 0 1 0-954.59555555 0Z" fill="#FFD629" p-id="1966"></path><path d="M885.2 298.58c-1.6-0.6 37.1 68.4 49.5 128.9 46.4 227-99.9 448.6-326.9 495.1-37.9 7.8-75.7 10.1-112.5 7.7-63.2-4.2-123.6-22.8-177.3-53 0 0 348.9-269.7 567.2-578.7z" fill="#FF9A2C" p-id="1967"></path><path d="M922.4 383.38c73.9 216.8-52.8 456-264 525.8-36.7 12.1-108.5 28.3-184.9 19.4 0-0.5 166.62-15.7 313.54-190.74C942.88 552.16 920.2 376.98 922.4 383.38z" fill="#FF9A2C" p-id="1968"></path><path d="M808.53333333 162.64533333c-43.62666667-36.90666667-99.84-63.25333333-166.18666666-82.45333333-101.86666667-29.44-212.69333333-18.88-320.64 33.6-148.58666667 72.21333333-256.10666667 262.29333333-242.77333334 426.88 4.48 55.46666667 10.77333333 108.58666667 32 155.2 0.53333333 1.06666667 1.70666667 1.6 2.88 1.28 22.50666667-7.25333333 233.38666667-78.50666667 400.85333334-202.98666667 227.52-169.06666667 311.78666667-316.37333333 293.86666666-331.52z" fill="#FCE99A" p-id="1969"></path><path d="M166.40936747 401.67952213a145.06666667 249.92 54.429 1 0 406.56750506-290.76260053 145.06666667 249.92 54.429 1 0-406.56750506 290.76260053Z" fill="#F9F2D7" p-id="1970"></path><path d="M623.89333333 314.00533333m-56.21333333 0a56.21333333 56.21333333 0 1 0 112.42666667 0 56.21333333 56.21333333 0 1 0-112.42666667 0Z" fill="#211715" p-id="1971"></path><path d="M373.01333333 433.472l-82.77333333 133.65333333-16.53333333-8.53333333c-17.06666667-8.74666667-23.78666667-29.76-15.04-46.82666667l27.94666666-50.45333333-48.64-20.90666667c-16.74666667-8.64-23.36-29.22666667-14.72-45.97333333l8.74666667-17.06666667 141.01333333 56.10666667z" fill="#211715" p-id="1972"></path><path d="M615.53777778 475.22702222c31.17511111 64.28444445 16.04266667 135.96444445-33.792 160.19911111s-115.59822222-8.192-146.77333333-72.47644444l34.816-9.10222222c42.55288889-11.03644445 82.03377778-30.26488889 117.07733333-56.88888889l28.672-21.73155556z" fill="#F94616" p-id="1973"></path><path d="M514.84444445 575.01013333l10.01244444 6.82666667c4.096 2.84444445 9.44355555 3.18577778 13.88088889 0.79644445l30.60622222-15.9288889c3.86844445-2.048 6.48533333-5.80266667 7.168-10.12622222l1.70666667-11.94666666c1.59288889-11.37777778-10.69511111-19.456-20.48-13.53955556-10.35377778 6.25777778-23.77955555 13.42577778-40.27733334 20.13866667-10.01244445 4.096-11.49155555 17.63555555-2.61688888 23.77955555z" fill="#E53600" p-id="1974"></path><path d="M922.4 383.38c73.9 216.8-52.8 456-264 525.8-36.7 12.1-108.5 28.3-184.9 19.4 0-0.5 122.92-45.83 275.21-216.29C910.21 531.51 920.2 376.98 922.4 383.38z" fill="#FF9A2C" p-id="1975"></path><path d="M922.4 383.38c73.9 216.8-52.8 456-264 525.8-36.7 12.1-108.5 28.3-184.9 19.4 0-0.5 89.92-84.69 242.21-255.15C877.21 492.65 920.2 376.98 922.4 383.38z" fill="#FF9A2C" p-id="1976"></path></svg>