<?xml version="1.0" standalone="no"?><!DOCTYPE svg PUBLIC "-//W3C//DTD SVG 1.1//EN" "http://www.w3.org/Graphics/SVG/1.1/DTD/svg11.dtd"><svg t="1642601383026" class="icon" viewBox="0 0 1024 1024" version="1.1" xmlns="http://www.w3.org/2000/svg" p-id="1796" width="128" height="128" xmlns:xlink="http://www.w3.org/1999/xlink"><defs><style type="text/css"></style></defs><path d="M310.62243555 972.37826333c-40.86291001 25.38913223-94.29902222 12.25765888-119.11774776-29.07856555a87.98814777 87.98814777 0 0 1-10.19448889-65.34181888l52.88997888-225.55306667a14.95191666 14.95191666 0 0 0-4.57538333-14.63637333l-173.12426666-150.85416335c-35.95984555-31.31164445-40.11045888-86.07061333-9.36922112-122.57659221a86.10702222 86.10702222 0 0 1 58.86103666-30.43783111L333.19594667 315.392c4.95160889-0.41263445 9.38135666-3.67729778 11.4081189-8.64104334l87.53910442-214.09640221c18.24085333-44.60088889 68.97057223-65.90008889 113.23164444-47.17378446a86.82306333 86.82306333 0 0 1 46.45774223 47.17378446l87.53910556 214.08426667c2.0267611 4.9758811 6.45651001 8.2526811 11.4081189 8.65317888l227.22787555 18.51998777c47.64709888 3.88361443 82.92731221 46.03297223 79.15292445 93.8863889a87.53910557 87.53910557 0 0 1-29.67324445 59.1401711l-173.12426666 150.85416334c-4.02924999 3.50739001-5.84969443 9.18717667-4.57538446 14.62423666l52.88998002 225.55306666c10.94693888 46.66405888-17.47626667 93.68007111-63.87332779 104.93041778a85.65797888 85.65797888 0 0 1-65.45104555-10.51003221l-194.53269333-120.87751111a12.85233778 12.85233778 0 0 0-13.66547001 0l-194.54483001 120.87751111z" fill="#13227a" p-id="1797"></path></svg>