<?xml version="1.0" standalone="no"?><!DOCTYPE svg PUBLIC "-//W3C//DTD SVG 1.1//EN" "http://www.w3.org/Graphics/SVG/1.1/DTD/svg11.dtd"><svg t="1638712867303" class="icon" viewBox="0 0 1120 1024" version="1.1" xmlns="http://www.w3.org/2000/svg" p-id="1393" width="140" height="128" xmlns:xlink="http://www.w3.org/1999/xlink"><defs><style type="text/css"></style></defs><path d="M906.3424 809.984m-214.016 0a214.016 214.016 0 1 0 428.032 0 214.016 214.016 0 1 0-428.032 0Z" fill="#00D0FF" opacity=".8" p-id="1394"></path><path d="M512 512m-512 0a512 512 0 1 0 1024 0 512 512 0 1 0-1024 0Z" fill="#032CDD" opacity=".7" p-id="1395"></path><path d="M713.728 578.4576H456.3968a40.0384 40.0384 0 0 1-39.6288-40.1408V321.9456a40.1408 40.1408 0 0 1 80.1792 0v176.3328H713.728a40.1408 40.1408 0 0 1 0 80.1792z" fill="#FFFFFF" p-id="1396"></path></svg>