<?xml version="1.0" standalone="no"?><!DOCTYPE svg PUBLIC "-//W3C//DTD SVG 1.1//EN" "http://www.w3.org/Graphics/SVG/1.1/DTD/svg11.dtd"><svg t="1643093329772" class="icon" viewBox="0 0 1024 1024" version="1.1" xmlns="http://www.w3.org/2000/svg" p-id="1970" width="128" height="128" xmlns:xlink="http://www.w3.org/1999/xlink"><defs><style type="text/css"></style></defs><path d="M82.46666673 532.9c8.1 8.5 100.8 128 188 241.79999999 1.5 1.9 3 3.8 4.49999999 5.9 1 1.2 1.8 2.5 2.80000001 3.6l0.5 0.6c2 2.2 12.8 13.3 30.1 13.8 8.2 0.2 20.5-1.9 32.3-13.7 0.9-0.9 1.5-1.6 1.9-2.1l0.1-0.1L544.26666673 526.59999999c6.6-7.3 10.1-15.5 10.1-24.3 0-12.49999999-7.9-28.8-30.2-33.3-6.1-1.3-12-1.3-12.6-1.3l-108.3 0 0-106.3c0-19.8-8.8-31-16-36.9-9.50000001-7.7-20-9.4-27.2-9.4-1.6 0-3.2 0.1-4.8 0.2l-86.8 0c-4.1 0-7.9 0.4-11.8 1.3-1.1 0.1-1.9 0.4-2.6 0.5l1.6 6.2-1.6-6.2c-0.1 0-0.2 0.1-0.3 0.1l-0.8 0.2c-3 0.9-5.6 1.9-8.1 3.1l-1.4 0.6-0.5 0.2c-12.4 6.7-19.60000001 17.8-22.3 25.8-1.1 3.2-1.3 6.2-1.4 8.9l0 0.3L220.66666673 465.79999999l-122.3 0c-5.7 0-11 1.6-15.6 4.6-7.6 4.9-15.8 15.2-15.8 29.5 0 11.49999999 5.2 22.6 15.5 33.00000001zM277.56666673 373.39999999l67.8 0L345.36666673 496.69999999c0 16 13 29 29 29l96.6 0L309.66666673 730.59999999c-35.9-46.9-117.8-153.4-159.8-206.7L250.06666673 523.89999999c7.70000001 0 15.2-3.1 20.5-8.6l0.1-0.1c5.3-5.59999999 8.29999999-12.7 8.3-20.4l-1.4-121.4z m0 0" fill="#13227a" p-id="1971"></path><path d="M951.3 251.00000001L795.1 79.5C789 72.9 780.4 68.99999999 771.5 69L424.4 69c-41.5 0-75.3 34.2-75.3 76.4l0 80.4 7.99999999 2.4c11.4 3.3 18.4 11 19.10000001 11.9l0.5 0.5 5.3 7.1c3.7 4.9 7.40000001 9.8 10.99999999 14.7l20.00000001 26.3L413 145.4c0-6.3 5-11.6 11.3-11.59999999l326.1-1e-8 0 136.1c0 11.7 9.4 21.3 21.1 21.3l124 0 0 587.50000001c0 6.4-5.00000001 11.7-11.3 11.69999999L424.4 890.4c-6.2 0-11.3-5.2-11.3-11.7l1e-8-62.9-15.60000001 7.10000001c-6.4 2.90000001-13.2 4.3-20 4.29999999l-28.3 0 0 51.6c0 42.1 33.8 76.4 75.3 76.4l459.8 0c41.5 0 75.3-34.2 75.3-76.4L959.6 272.9c0-8-3-15.8-8.3-21.89999999z m-89.3-2.20000001l-69.5 0 0-76.5 69.5 76.5z m0 0" fill="#13227a" p-id="1972"></path><path d="M550.8 359.1l53 0 0 109.8c6.5-6.2 14.4-14 23.8-23.5l4.8 19c-13.8 14.3-28.7 27.30000001-44.5 38.8l-7-16c3.8-3.5 5.8-7.3 5.8-11.5l0-99.29999999-35.8-1e-8 0-17.3z m30.3-73.79999999c16.3 12.2 30.4 24.8 42.29999999 37.99999999l-12.29999999 12.5c-10.5-12-24.8-24.8-42.79999999-38.3l12.79999999-12.19999999z m112.8-2.70000001l17.3 0 0 16.3 62.00000001 0 0 14.8-62.00000001 0 0 16.8 53 0L764.2 345l-53 0 0 17 68.3 0 0 15L626.3 377l0-15 67.5 0 0-17-50.5 0 0-14.50000001 50.5 0 0-16.79999999-60.5 0 0-14.8 60.5 0 0-16.29999999z m-31.3 189.6L662.6 512l-17.3 0L645.3 392.6l115.3 0 0 97.5c0 13.50000001-7.1 20.3-21.30000001 20.3l-20.99999999 0-4.3-16 20 0.7c6.2 0 9.3-2.9 9.3-8.8L743.3 472l-80.7 0z m80.8-46.3l0-18.5-80.8 0 0 18.5 80.8 0z m-80.8 14l0 18.3 80.8 0 0-18.3-80.8 0z" fill="#13227a" p-id="1973"></path><path d="M583.9 677.4c-4.9 8.2-10.9 17.00000001-17.8 26.3l-5.4-17.2c18.1-26.6 31.4-57.3 39.7-91.9l14.9 6.9c-4.3 16.1-9.4 30.9-15.4 44.6l1e-8 155.1-16.10000001 0L583.8 677.4zM756.6 670.5l-60.2 0 0-14.9L741 655.6l0-35.5-44.2 0 0-15 59.8 0zM685.5 670.5l0-65.4-61.4 0L624.1 801l15.6 0 0-43.5 41.5 0 0-14.9-41.5 0 0-29L681 713.6l0-15.4-41.3 0 0-27.7 45.8 0z m-45.8-50.4l30.6 0 0 35.7-30.6 0 0-35.7z" fill="#13227a" p-id="1974"></path><path d="M735.4 761.1c11-15.2 19-33.8 23.9-55.8l0-14.1-70.1-1e-8 0 14.90000001 6.2 0c3.1 19.9 9.8 37.9 20.10000001 53.8l0.19999999 0.2c-10.6 11.49999999-23.7 20.9-39.5 28.3l8.7 13.6c16.1-7.4 29.6-17.1 40.6-29 9.8 11.5 22 20.9 36.6 28.3l7.6-13.6c-12.3-6.2-23.7-15.2-34.3-26.6z m-10-12.7c-8.2-11.9-13.50000001-26-15.8-42.2l35.3 0c-4.6 15.8-11 29.8-19.5 42.2z" fill="#13227a" p-id="1975"></path></svg>