<?xml version="1.0" standalone="no"?><!DOCTYPE svg PUBLIC "-//W3C//DTD SVG 1.1//EN" "http://www.w3.org/Graphics/SVG/1.1/DTD/svg11.dtd"><svg t="1640695428611" class="icon" viewBox="0 0 1024 1024" version="1.1" xmlns="http://www.w3.org/2000/svg" p-id="1851" width="128" height="128" xmlns:xlink="http://www.w3.org/1999/xlink"><defs><style type="text/css"></style></defs><path d="M961.81527253 959.43214507a445.19796373 445.19796373 0 0 0-170.14535786-320.1334304l-6.00746667-4.12082347a35.84620587 35.84620587 0 0 0-18.7671264-5.31238827 30.73241173 30.73241173 0 0 0-36.49163627 29.4912 35.89585493 35.89585493 0 0 0 13.30579307 27.70385494l5.31238827 3.77328426a346.0002912 346.0002912 0 0 1 139.9094304 269.3430304v4.31941867a36.44198827 36.44198827 0 0 0 72.83432746 2.0355872h0.74472747zM844.44625493 349.55015787a332.644848 332.644848 0 0 0-664.99180693 0 324.94933333 324.94933333 0 0 0 118.80882453 251.27098133 447.82933333 447.82933333 0 0 0-236.12819413 363.12901867l-0.3971872 6.35500586a1.14191467 1.14191467 0 0 0 0 0.39718827v1.48945387a30.93100587 30.93100587 0 0 0 61.81236373 0v-0.94332054h0.3971872l0.49648534-6.35500693a380.25774507 380.25774507 0 0 1 234.53944213-324.20460587 393.66283627 393.66283627 0 0 0 152.86768533 37.18671574 333.04203627 333.04203627 0 0 0 143.98060587-32.81764907l33.66167253-19.56150293 27.5549088-18.072048a325.29687253 325.29687253 0 0 0 127.1497696-257.92387947z m-332.64484906 262.24329706a264.27888533 264.27888533 0 0 1-265.66904214-262.29294613 265.7186912 265.7186912 0 0 1 531.23878827 0 264.32853333 264.32853333 0 0 1-265.7186912 262.29294613z m0 0" fill="#13227a" p-id="1852"></path></svg>