<?xml version="1.0" standalone="no"?><!DOCTYPE svg PUBLIC "-//W3C//DTD SVG 1.1//EN" "http://www.w3.org/Graphics/SVG/1.1/DTD/svg11.dtd"><svg t="1642609331192" class="icon" viewBox="0 0 1024 1024" version="1.1" xmlns="http://www.w3.org/2000/svg" p-id="1897" xmlns:xlink="http://www.w3.org/1999/xlink" width="128" height="128"><defs><style type="text/css"></style></defs><path d="M663.43822222 534.64177778C787.00088889 450.90133333 819.2 282.85155555 735.45955555 159.28888889S483.78311111 3.64088889 360.22044445 87.38133333 204.45866667 339.05777778 288.19911111 462.62044445c19.22844445 28.33066667 43.69066667 52.79288889 72.02133334 72.02133333C173.85244445 588.91377778 39.48088889 740.12444445 39.48088889 918.18666667v67.35644444H309.47555555V918.18666667H106.95111111c0-183.06844445 175.104-332.23111111 393.32977778-337.23733334h22.75555556C585.95555555 582.31466667 647.96444445 596.19555555 705.42222222 622.02311111l-201.728 201.38666667-95.11822222-95.34577778-47.55911111 47.78666667 143.24622222 143.24622222 26.28266667-26.28266667L766.86222222 656.61155555c90.68088889 56.66133333 146.88711111 155.07911111 149.73155556 261.91644445H714.29688889v67.01511111h270.22222222V918.18666667c0-178.06222222-134.37155555-329.27288889-321.08088889-383.54488889z m-151.43822222-21.61777778c-111.72977778 0-202.29688889-90.56711111-202.29688889-202.29688889 0-111.72977778 90.56711111-202.29688889 202.29688889-202.29688889 111.72977778 0 202.29688889 90.56711111 202.29688889 202.29688889S623.72977778 513.024 512 513.024z" fill="#2c2c2c" p-id="1898"></path></svg>