<?xml version="1.0" standalone="no"?><!DOCTYPE svg PUBLIC "-//W3C//DTD SVG 1.1//EN" "http://www.w3.org/Graphics/SVG/1.1/DTD/svg11.dtd"><svg t="1639922666830" class="icon" viewBox="0 0 1024 1024" version="1.1" xmlns="http://www.w3.org/2000/svg" p-id="1225" xmlns:xlink="http://www.w3.org/1999/xlink" width="128" height="128"><defs><style type="text/css"></style></defs><path d="M213.39733332 377.6512q33.86026667 0 49.69813335 20.75306667t15.83786666 45.8752l0 477.32053333-205.34613334 0 0-472.95146667q0-33.86026667 21.2992-52.4288t46.42133334-18.56853333l72.0896 0zM554.18453333 108.9536q29.4912 0 46.96746666 18.0224t17.47626667 43.14453333l0 751.47946667-204.25386667 0 0-749.29493333q0-16.384 6.55360001-28.39893334t16.38399999-19.6608 21.84533333-11.4688 21.84533334-3.82293333l73.18186667 0zM893.87946666 581.90506667q9.8304 0 21.2992 5.46133333t21.84533334 15.29173333 17.47626666 22.39146667 7.09973334 26.76053333l0 269.78986667-204.25386668 0 0-267.60533333q0-12.01493333 4.9152-25.12213334t13.65333334-23.48373333 20.75306666-16.93013333 26.2144-6.5536l70.99733334 0z" fill="#174B89" p-id="1226"></path></svg>