<?xml version="1.0" standalone="no"?><!DOCTYPE svg PUBLIC "-//W3C//DTD SVG 1.1//EN" "http://www.w3.org/Graphics/SVG/1.1/DTD/svg11.dtd"><svg t="1640695940913" class="icon" viewBox="0 0 1024 1024" version="1.1" xmlns="http://www.w3.org/2000/svg" p-id="1419" width="128" height="128" xmlns:xlink="http://www.w3.org/1999/xlink"><defs><style type="text/css"></style></defs><path d="M868.12444445 930.70222222v91.02222223H155.87555555v-91.02222223h712.2488889zM512 3.41333333c199.29543111 0 361.65745778 154.49088 361.65745778 346.11086222 0 122.39075555-104.52423111 294.10417778-312.1152 522.81799112a68.26666667 68.26666667 0 0 1-4.83896889 4.82190222c-28.00298667 25.24615111-71.16913778 23.01041778-96.44942222-5.02897778l-5.99153778-6.66282666C252.14520889 640.16725333 150.34254222 470.66453333 150.34254222 349.52419555 150.34254222 157.90421333 312.70456889 3.41333333 512 3.41333333z m0 81.92c-154.93688889 0-279.73745778 118.74986667-279.73745778 264.19086222 0 94.16817778 93.83253333 250.39758222 282.94485333 461.20618667l-4.18133333-4.67285333 1.60199111-1.77834667c92.03825778-102.41365333 161.47569778-191.93856 208.24064-268.25955555l1.46887112-2.40526222c46.69553778-76.71239111 69.39989333-138.58133333 69.39989333-184.0901689C791.73745778 204.0832 666.93688889 85.33333333 512 85.33333333z" fill="#8a8a8a" p-id="1420"></path><path d="M512 182.04444445c-88.38257778 0-160.06485333 71.55256889-160.06485333 159.85777777S423.61742222 501.76 512 501.76c88.38257778 0 160.06485333-71.55256889 160.06485333-159.85777778S600.38257778 182.04444445 512 182.04444445z m0 91.02222222c38.14968889 0 69.04263111 30.83719111 69.04263111 68.83555555S550.14968889 410.73777778 512 410.73777778s-69.04263111-30.83719111-69.04263111-68.83555556S473.85031111 273.06666667 512 273.06666667z" fill="#cdcdcd" p-id="1421"></path></svg>